<svg width="258" height="97" viewBox="0 0 258 97" fill="none" xmlns="http://www.w3.org/2000/svg">
<path d="M35.4692 66.68C35.9572 66.784 36.3492 67.028 36.6452 67.412C36.9412 67.788 37.0892 68.22 37.0892 68.708C37.0892 69.412 36.8412 69.972 36.3452 70.388C35.8572 70.796 35.1732 71 34.2932 71H30.3692V62.576H34.1612C35.0172 62.576 35.6852 62.772 36.1652 63.164C36.6532 63.556 36.8972 64.088 36.8972 64.76C36.8972 65.256 36.7652 65.668 36.5012 65.996C36.2452 66.324 35.9012 66.552 35.4692 66.68ZM32.4212 65.984H33.7652C34.1012 65.984 34.3572 65.912 34.5332 65.768C34.7172 65.616 34.8092 65.396 34.8092 65.108C34.8092 64.82 34.7172 64.6 34.5332 64.448C34.3572 64.296 34.1012 64.22 33.7652 64.22H32.4212V65.984ZM33.9332 69.344C34.2772 69.344 34.5412 69.268 34.7252 69.116C34.9172 68.956 35.0132 68.728 35.0132 68.432C35.0132 68.136 34.9132 67.904 34.7132 67.736C34.5212 67.568 34.2532 67.484 33.9092 67.484H32.4212V69.344H33.9332ZM44.5914 67.544C44.5914 67.736 44.5794 67.936 44.5554 68.144H39.9114C39.9434 68.56 40.0754 68.88 40.3074 69.104C40.5474 69.32 40.8394 69.428 41.1834 69.428C41.6954 69.428 42.0514 69.212 42.2514 68.78H44.4354C44.3234 69.22 44.1194 69.616 43.8234 69.968C43.5354 70.32 43.1714 70.596 42.7314 70.796C42.2914 70.996 41.7994 71.096 41.2554 71.096C40.5994 71.096 40.0154 70.956 39.5034 70.676C38.9914 70.396 38.5914 69.996 38.3034 69.476C38.0154 68.956 37.8714 68.348 37.8714 67.652C37.8714 66.956 38.0114 66.348 38.2914 65.828C38.5794 65.308 38.9794 64.908 39.4914 64.628C40.0034 64.348 40.5914 64.208 41.2554 64.208C41.9034 64.208 42.4794 64.344 42.9834 64.616C43.4874 64.888 43.8794 65.276 44.1594 65.78C44.4474 66.284 44.5914 66.872 44.5914 67.544ZM42.4914 67.004C42.4914 66.652 42.3714 66.372 42.1314 66.164C41.8914 65.956 41.5914 65.852 41.2314 65.852C40.8874 65.852 40.5954 65.952 40.3554 66.152C40.1234 66.352 39.9794 66.636 39.9234 67.004H42.4914ZM47.7259 62.12V71H45.6739V62.12H47.7259ZM48.8049 67.64C48.8049 66.952 48.9329 66.348 49.1889 65.828C49.4529 65.308 49.8089 64.908 50.2569 64.628C50.7049 64.348 51.2049 64.208 51.7569 64.208C52.2289 64.208 52.6409 64.304 52.9929 64.496C53.3529 64.688 53.6289 64.94 53.8209 65.252V64.304H55.8729V71H53.8209V70.052C53.6209 70.364 53.3409 70.616 52.9809 70.808C52.6289 71 52.2169 71.096 51.7449 71.096C51.2009 71.096 50.7049 70.956 50.2569 70.676C49.8089 70.388 49.4529 69.984 49.1889 69.464C48.9329 68.936 48.8049 68.328 48.8049 67.64ZM53.8209 67.652C53.8209 67.14 53.6769 66.736 53.3889 66.44C53.1089 66.144 52.7649 65.996 52.3569 65.996C51.9489 65.996 51.6009 66.144 51.3129 66.44C51.0329 66.728 50.8929 67.128 50.8929 67.64C50.8929 68.152 51.0329 68.56 51.3129 68.864C51.6009 69.16 51.9489 69.308 52.3569 69.308C52.7649 69.308 53.1089 69.16 53.3889 68.864C53.6769 68.568 53.8209 68.164 53.8209 67.652ZM58.3775 63.608C58.0175 63.608 57.7215 63.504 57.4895 63.296C57.2655 63.08 57.1535 62.816 57.1535 62.504C57.1535 62.184 57.2655 61.92 57.4895 61.712C57.7215 61.496 58.0175 61.388 58.3775 61.388C58.7295 61.388 59.0175 61.496 59.2415 61.712C59.4735 61.92 59.5895 62.184 59.5895 62.504C59.5895 62.816 59.4735 63.08 59.2415 63.296C59.0175 63.504 58.7295 63.608 58.3775 63.608ZM59.4095 71.864C59.4095 72.688 59.2015 73.28 58.7855 73.64C58.3695 74.008 57.7895 74.192 57.0455 74.192H56.2415V72.452H56.7335C56.9575 72.452 57.1175 72.408 57.2135 72.32C57.3095 72.232 57.3575 72.088 57.3575 71.888V64.304H59.4095V71.864ZM60.4768 67.64C60.4768 66.952 60.6048 66.348 60.8608 65.828C61.1248 65.308 61.4808 64.908 61.9288 64.628C62.3768 64.348 62.8768 64.208 63.4288 64.208C63.9008 64.208 64.3128 64.304 64.6648 64.496C65.0248 64.688 65.3008 64.94 65.4928 65.252V64.304H67.5448V71H65.4928V70.052C65.2928 70.364 65.0128 70.616 64.6528 70.808C64.3008 71 63.8888 71.096 63.4168 71.096C62.8728 71.096 62.3768 70.956 61.9288 70.676C61.4808 70.388 61.1248 69.984 60.8608 69.464C60.6048 68.936 60.4768 68.328 60.4768 67.64ZM65.4928 67.652C65.4928 67.14 65.3488 66.736 65.0608 66.44C64.7808 66.144 64.4368 65.996 64.0288 65.996C63.6208 65.996 63.2728 66.144 62.9848 66.44C62.7048 66.728 62.5648 67.128 62.5648 67.64C62.5648 68.152 62.7048 68.56 62.9848 68.864C63.2728 69.16 63.6208 69.308 64.0288 69.308C64.4368 69.308 64.7808 69.16 65.0608 68.864C65.3488 68.568 65.4928 68.164 65.4928 67.652ZM71.0814 65.42C71.3214 65.052 71.6214 64.764 71.9814 64.556C72.3414 64.34 72.7414 64.232 73.1814 64.232V66.404H72.6174C72.1054 66.404 71.7214 66.516 71.4654 66.74C71.2094 66.956 71.0814 67.34 71.0814 67.892V71H69.0294V64.304H71.0814V65.42ZM81.8051 66.68C82.2931 66.784 82.6851 67.028 82.9811 67.412C83.2771 67.788 83.4251 68.22 83.4251 68.708C83.4251 69.412 83.1771 69.972 82.6811 70.388C82.1931 70.796 81.5091 71 80.6291 71H76.7051V62.576H80.4971C81.3531 62.576 82.0211 62.772 82.5011 63.164C82.9891 63.556 83.2331 64.088 83.2331 64.76C83.2331 65.256 83.1011 65.668 82.8371 65.996C82.5811 66.324 82.2371 66.552 81.8051 66.68ZM78.7571 65.984H80.1011C80.4371 65.984 80.6931 65.912 80.8691 65.768C81.0531 65.616 81.1451 65.396 81.1451 65.108C81.1451 64.82 81.0531 64.6 80.8691 64.448C80.6931 64.296 80.4371 64.22 80.1011 64.22H78.7571V65.984ZM80.2691 69.344C80.6131 69.344 80.8771 69.268 81.0611 69.116C81.2531 68.956 81.3491 68.728 81.3491 68.432C81.3491 68.136 81.2491 67.904 81.0491 67.736C80.8571 67.568 80.5891 67.484 80.2451 67.484H78.7571V69.344H80.2691ZM84.2073 67.64C84.2073 66.952 84.3353 66.348 84.5913 65.828C84.8553 65.308 85.2113 64.908 85.6593 64.628C86.1073 64.348 86.6073 64.208 87.1593 64.208C87.6313 64.208 88.0433 64.304 88.3953 64.496C88.7553 64.688 89.0313 64.94 89.2233 65.252V64.304H91.2753V71H89.2233V70.052C89.0233 70.364 88.7433 70.616 88.3833 70.808C88.0313 71 87.6193 71.096 87.1473 71.096C86.6033 71.096 86.1073 70.956 85.6593 70.676C85.2113 70.388 84.8553 69.984 84.5913 69.464C84.3353 68.936 84.2073 68.328 84.2073 67.64ZM89.2233 67.652C89.2233 67.14 89.0793 66.736 88.7913 66.44C88.5113 66.144 88.1673 65.996 87.7593 65.996C87.3513 65.996 87.0033 66.144 86.7153 66.44C86.4353 66.728 86.2953 67.128 86.2953 67.64C86.2953 68.152 86.4353 68.56 86.7153 68.864C87.0033 69.16 87.3513 69.308 87.7593 69.308C88.1673 69.308 88.5113 69.16 88.7913 68.864C89.0793 68.568 89.2233 68.164 89.2233 67.652ZM96.8758 64.232C97.6438 64.232 98.2598 64.488 98.7238 65C99.1878 65.504 99.4198 66.2 99.4198 67.088V71H97.3798V67.364C97.3798 66.916 97.2638 66.568 97.0318 66.32C96.7998 66.072 96.4878 65.948 96.0958 65.948C95.7038 65.948 95.3918 66.072 95.1598 66.32C94.9278 66.568 94.8118 66.916 94.8118 67.364V71H92.7598V62.12H94.8118V65.204C95.0198 64.908 95.3038 64.672 95.6638 64.496C96.0238 64.32 96.4278 64.232 96.8758 64.232ZM100.438 67.64C100.438 66.952 100.566 66.348 100.822 65.828C101.086 65.308 101.442 64.908 101.89 64.628C102.338 64.348 102.838 64.208 103.39 64.208C103.862 64.208 104.274 64.304 104.626 64.496C104.986 64.688 105.262 64.94 105.454 65.252V64.304H107.506V71H105.454V70.052C105.254 70.364 104.974 70.616 104.614 70.808C104.262 71 103.85 71.096 103.378 71.096C102.834 71.096 102.338 70.956 101.89 70.676C101.442 70.388 101.086 69.984 100.822 69.464C100.566 68.936 100.438 68.328 100.438 67.64ZM105.454 67.652C105.454 67.14 105.31 66.736 105.022 66.44C104.742 66.144 104.398 65.996 103.99 65.996C103.582 65.996 103.234 66.144 102.946 66.44C102.666 66.728 102.526 67.128 102.526 67.64C102.526 68.152 102.666 68.56 102.946 68.864C103.234 69.16 103.582 69.308 103.99 69.308C104.398 69.308 104.742 69.16 105.022 68.864C105.31 68.568 105.454 68.164 105.454 67.652ZM111.714 71.096C111.13 71.096 110.61 70.996 110.154 70.796C109.698 70.596 109.338 70.324 109.074 69.98C108.81 69.628 108.662 69.236 108.63 68.804H110.658C110.682 69.036 110.79 69.224 110.982 69.368C111.174 69.512 111.41 69.584 111.69 69.584C111.946 69.584 112.142 69.536 112.278 69.44C112.422 69.336 112.494 69.204 112.494 69.044C112.494 68.852 112.394 68.712 112.194 68.624C111.994 68.528 111.67 68.424 111.222 68.312C110.742 68.2 110.342 68.084 110.022 67.964C109.702 67.836 109.426 67.64 109.194 67.376C108.962 67.104 108.846 66.74 108.846 66.284C108.846 65.9 108.95 65.552 109.158 65.24C109.374 64.92 109.686 64.668 110.094 64.484C110.51 64.3 111.002 64.208 111.57 64.208C112.41 64.208 113.07 64.416 113.55 64.832C114.038 65.248 114.318 65.8 114.39 66.488H112.494C112.462 66.256 112.358 66.072 112.182 65.936C112.014 65.8 111.79 65.732 111.51 65.732C111.27 65.732 111.086 65.78 110.958 65.876C110.83 65.964 110.766 66.088 110.766 66.248C110.766 66.44 110.866 66.584 111.066 66.68C111.274 66.776 111.594 66.872 112.026 66.968C112.522 67.096 112.926 67.224 113.238 67.352C113.55 67.472 113.822 67.672 114.054 67.952C114.294 68.224 114.418 68.592 114.426 69.056C114.426 69.448 114.314 69.8 114.09 70.112C113.874 70.416 113.558 70.656 113.142 70.832C112.734 71.008 112.258 71.096 111.714 71.096ZM115.274 67.64C115.274 66.952 115.402 66.348 115.658 65.828C115.922 65.308 116.278 64.908 116.726 64.628C117.174 64.348 117.674 64.208 118.226 64.208C118.698 64.208 119.11 64.304 119.462 64.496C119.822 64.688 120.098 64.94 120.29 65.252V64.304H122.342V71H120.29V70.052C120.09 70.364 119.81 70.616 119.45 70.808C119.098 71 118.686 71.096 118.214 71.096C117.67 71.096 117.174 70.956 116.726 70.676C116.278 70.388 115.922 69.984 115.658 69.464C115.402 68.936 115.274 68.328 115.274 67.64ZM120.29 67.652C120.29 67.14 120.146 66.736 119.858 66.44C119.578 66.144 119.234 65.996 118.826 65.996C118.418 65.996 118.07 66.144 117.782 66.44C117.502 66.728 117.362 67.128 117.362 67.64C117.362 68.152 117.502 68.56 117.782 68.864C118.07 69.16 118.418 69.308 118.826 69.308C119.234 69.308 119.578 69.16 119.858 68.864C120.146 68.568 120.29 68.164 120.29 67.652ZM131.649 62.576V68.312C131.649 69.2 131.397 69.884 130.893 70.364C130.397 70.844 129.725 71.084 128.877 71.084C127.989 71.084 127.277 70.832 126.741 70.328C126.205 69.824 125.937 69.108 125.937 68.18H127.977C127.977 68.532 128.049 68.8 128.193 68.984C128.337 69.16 128.545 69.248 128.817 69.248C129.065 69.248 129.257 69.168 129.393 69.008C129.529 68.848 129.597 68.616 129.597 68.312V62.576H131.649ZM132.899 67.64C132.899 66.952 133.027 66.348 133.283 65.828C133.547 65.308 133.903 64.908 134.351 64.628C134.799 64.348 135.299 64.208 135.851 64.208C136.323 64.208 136.735 64.304 137.087 64.496C137.447 64.688 137.723 64.94 137.915 65.252V64.304H139.967V71H137.915V70.052C137.715 70.364 137.435 70.616 137.075 70.808C136.723 71 136.311 71.096 135.839 71.096C135.295 71.096 134.799 70.956 134.351 70.676C133.903 70.388 133.547 69.984 133.283 69.464C133.027 68.936 132.899 68.328 132.899 67.64ZM137.915 67.652C137.915 67.14 137.771 66.736 137.483 66.44C137.203 66.144 136.859 65.996 136.451 65.996C136.043 65.996 135.695 66.144 135.407 66.44C135.127 66.728 134.987 67.128 134.987 67.64C134.987 68.152 135.127 68.56 135.407 68.864C135.695 69.16 136.043 69.308 136.451 69.308C136.859 69.308 137.203 69.16 137.483 68.864C137.771 68.568 137.915 68.164 137.915 67.652ZM151.063 64.304L149.251 71H146.983L145.927 66.656L144.835 71H142.579L140.755 64.304H142.807L143.755 69.092L144.883 64.304H147.055L148.195 69.068L149.131 64.304H151.063ZM151.438 67.64C151.438 66.952 151.566 66.348 151.822 65.828C152.086 65.308 152.442 64.908 152.89 64.628C153.338 64.348 153.838 64.208 154.39 64.208C154.862 64.208 155.274 64.304 155.626 64.496C155.986 64.688 156.262 64.94 156.454 65.252V64.304H158.506V71H156.454V70.052C156.254 70.364 155.974 70.616 155.614 70.808C155.262 71 154.85 71.096 154.378 71.096C153.834 71.096 153.338 70.956 152.89 70.676C152.442 70.388 152.086 69.984 151.822 69.464C151.566 68.936 151.438 68.328 151.438 67.64ZM156.454 67.652C156.454 67.14 156.31 66.736 156.022 66.44C155.742 66.144 155.398 65.996 154.99 65.996C154.582 65.996 154.234 66.144 153.946 66.44C153.666 66.728 153.526 67.128 153.526 67.64C153.526 68.152 153.666 68.56 153.946 68.864C154.234 69.16 154.582 69.308 154.99 69.308C155.398 69.308 155.742 69.16 156.022 68.864C156.31 68.568 156.454 68.164 156.454 67.652ZM167.417 71L164.585 67.28V71H162.533V62.576H164.585V66.272L167.393 62.576H169.805L166.541 66.704L169.925 71H167.417ZM172.952 65.42C173.192 65.052 173.492 64.764 173.852 64.556C174.212 64.34 174.612 64.232 175.052 64.232V66.404H174.488C173.976 66.404 173.592 66.516 173.336 66.74C173.08 66.956 172.952 67.34 172.952 67.892V71H170.9V64.304H172.952V65.42ZM175.625 67.64C175.625 66.952 175.753 66.348 176.009 65.828C176.273 65.308 176.629 64.908 177.077 64.628C177.525 64.348 178.025 64.208 178.577 64.208C179.049 64.208 179.461 64.304 179.813 64.496C180.173 64.688 180.449 64.94 180.641 65.252V64.304H182.693V71H180.641V70.052C180.441 70.364 180.161 70.616 179.801 70.808C179.449 71 179.037 71.096 178.565 71.096C178.021 71.096 177.525 70.956 177.077 70.676C176.629 70.388 176.273 69.984 176.009 69.464C175.753 68.936 175.625 68.328 175.625 67.64ZM180.641 67.652C180.641 67.14 180.497 66.736 180.209 66.44C179.929 66.144 179.585 65.996 179.177 65.996C178.769 65.996 178.421 66.144 178.133 66.44C177.853 66.728 177.713 67.128 177.713 67.64C177.713 68.152 177.853 68.56 178.133 68.864C178.421 69.16 178.769 69.308 179.177 69.308C179.585 69.308 179.929 69.16 180.209 68.864C180.497 68.568 180.641 68.164 180.641 67.652ZM192.722 64.232C193.554 64.232 194.214 64.484 194.702 64.988C195.198 65.492 195.446 66.192 195.446 67.088V71H193.406V67.364C193.406 66.932 193.29 66.6 193.058 66.368C192.834 66.128 192.522 66.008 192.122 66.008C191.722 66.008 191.406 66.128 191.174 66.368C190.95 66.6 190.838 66.932 190.838 67.364V71H188.798V67.364C188.798 66.932 188.682 66.6 188.45 66.368C188.226 66.128 187.914 66.008 187.514 66.008C187.114 66.008 186.798 66.128 186.566 66.368C186.342 66.6 186.23 66.932 186.23 67.364V71H184.178V64.304H186.23V65.144C186.438 64.864 186.71 64.644 187.046 64.484C187.382 64.316 187.762 64.232 188.186 64.232C188.69 64.232 189.138 64.34 189.53 64.556C189.93 64.772 190.242 65.08 190.466 65.48C190.698 65.112 191.014 64.812 191.414 64.58C191.814 64.348 192.25 64.232 192.722 64.232ZM196.473 67.64C196.473 66.952 196.601 66.348 196.857 65.828C197.121 65.308 197.477 64.908 197.925 64.628C198.373 64.348 198.873 64.208 199.425 64.208C199.897 64.208 200.309 64.304 200.661 64.496C201.021 64.688 201.297 64.94 201.489 65.252V64.304H203.541V71H201.489V70.052C201.289 70.364 201.009 70.616 200.649 70.808C200.297 71 199.885 71.096 199.413 71.096C198.869 71.096 198.373 70.956 197.925 70.676C197.477 70.388 197.121 69.984 196.857 69.464C196.601 68.936 196.473 68.328 196.473 67.64ZM201.489 67.652C201.489 67.14 201.345 66.736 201.057 66.44C200.777 66.144 200.433 65.996 200.025 65.996C199.617 65.996 199.269 66.144 198.981 66.44C198.701 66.728 198.561 67.128 198.561 67.64C198.561 68.152 198.701 68.56 198.981 68.864C199.269 69.16 199.617 69.308 200.025 69.308C200.433 69.308 200.777 69.16 201.057 68.864C201.345 68.568 201.489 68.164 201.489 67.652Z" fill="#FAFDFC"/>
<path d="M93.4271 21.808C94.8351 21.808 96.1471 22.0747 97.3631 22.608C98.6005 23.1413 99.6671 23.9413 100.563 25.008C101.48 26.0533 102.195 27.3653 102.707 28.944C103.219 30.5013 103.475 32.3253 103.475 34.416C103.475 36.2293 103.272 37.8507 102.867 39.28C102.462 40.688 101.864 41.8933 101.075 42.896C100.307 43.8773 99.3685 44.6347 98.2591 45.168C97.1498 45.7013 95.8911 45.9787 94.4831 46H89.8751V32.208C89.8751 31.7173 89.7898 31.2693 89.6191 30.864C89.4485 30.4373 89.2671 30.064 89.0751 29.744C88.8191 29.3813 88.5418 29.0507 88.2431 28.752L91.9231 27.12C92.3925 27.3333 92.8191 27.6213 93.2031 27.984C93.5231 28.304 93.8111 28.7413 94.0671 29.296C94.3445 29.8293 94.4831 30.5013 94.4831 31.312V44.784C95.2725 44.656 95.9551 44.3253 96.5311 43.792C97.1071 43.2373 97.5765 42.5547 97.9391 41.744C98.3231 40.912 98.6005 39.9733 98.7711 38.928C98.9631 37.8827 99.0591 36.7947 99.0591 35.664C99.0591 33.9787 98.8458 32.5173 98.4191 31.28C97.9925 30.0427 97.4271 29.0293 96.7231 28.24C96.0191 27.4293 95.2191 26.832 94.3231 26.448C93.4485 26.0427 92.5631 25.84 91.6671 25.84C90.9631 25.84 90.2805 25.9573 89.6191 26.192C88.9578 26.4053 88.3391 26.736 87.7631 27.184C87.2085 27.6107 86.7178 28.1547 86.2911 28.816C85.8858 29.456 85.5765 30.192 85.3631 31.024H85.3311C85.0538 29.9147 85.0005 28.816 85.1711 27.728C85.3205 26.6187 85.7258 25.6267 86.3871 24.752C87.0485 23.8773 87.9551 23.1733 89.1071 22.64C90.2805 22.0853 91.7205 21.808 93.4271 21.808ZM107.134 23.312C107.603 23.504 108.03 23.792 108.414 24.176C108.713 24.4747 108.99 24.9013 109.246 25.456C109.523 25.9893 109.662 26.6613 109.662 27.472V45.808H105.086V28.4C105.086 27.9093 105.001 27.4507 104.83 27.024C104.659 26.5973 104.478 26.2347 104.286 25.936C104.03 25.5733 103.753 25.2427 103.454 24.944L107.134 23.312ZM127.314 41.296C127.314 41.936 127.399 42.4587 127.57 42.864C127.741 43.248 127.933 43.5573 128.146 43.792C128.381 44.0693 128.647 44.2613 128.946 44.368L127.026 46.64C126.215 46.7253 125.501 46.672 124.882 46.48C124.349 46.3093 123.858 46 123.41 45.552C122.962 45.0827 122.738 44.368 122.738 43.408V43.088C122.461 44.0053 121.959 44.7627 121.234 45.36C120.509 45.9573 119.453 46.256 118.066 46.256C116.978 46.256 115.997 46.0427 115.122 45.616C114.247 45.168 113.49 44.4853 112.85 43.568C112.231 42.6507 111.751 41.4987 111.41 40.112C111.09 38.7253 110.93 37.0827 110.93 35.184V34.992C110.93 33.4987 111.111 32.0907 111.474 30.768C111.837 29.4453 112.381 28.2933 113.106 27.312C113.853 26.3307 114.77 25.5627 115.858 25.008C116.967 24.432 118.269 24.144 119.762 24.144C120.722 24.144 121.533 24.3147 122.194 24.656C122.877 24.9973 123.442 25.3707 123.89 25.776C124.402 26.2667 124.839 26.8213 125.202 27.44L125.17 27.472C123.975 26.9813 122.823 26.736 121.714 26.736C119.858 26.736 118.386 27.4613 117.298 28.912C116.231 30.3413 115.698 32.4 115.698 35.088C115.698 36.496 115.826 37.7333 116.082 38.8C116.338 39.8453 116.669 40.7093 117.074 41.392C117.501 42.0747 117.97 42.5867 118.482 42.928C118.994 43.2693 119.495 43.44 119.986 43.44C120.733 43.44 121.373 43.0773 121.906 42.352C122.461 41.6267 122.738 40.528 122.738 39.056V34.672H127.314V41.296ZM132.228 23.312C132.697 23.504 133.124 23.792 133.508 24.176C133.806 24.4747 134.084 24.9013 134.34 25.456C134.617 25.9893 134.756 26.6613 134.756 27.472V45.808H130.18V28.4C130.18 27.9093 130.094 27.4507 129.924 27.024C129.753 26.5973 129.572 26.2347 129.38 25.936C129.124 25.5733 128.846 25.2427 128.548 24.944L132.228 23.312ZM157.816 24.816C157.603 28.848 157.208 32.4427 156.632 35.6C156.376 36.944 156.077 38.2667 155.736 39.568C155.395 40.8693 154.979 42.032 154.488 43.056C154.019 44.0587 153.475 44.8693 152.856 45.488C152.259 46.1067 151.576 46.416 150.808 46.416C149.848 46.416 149.048 46.1493 148.408 45.616C147.789 45.0613 147.277 44.336 146.872 43.44C146.424 44.336 145.912 45.0613 145.336 45.616C144.76 46.1493 144.109 46.416 143.384 46.416C142.189 46.416 141.24 45.9787 140.536 45.104C139.853 44.2293 139.32 43.1093 138.936 41.744C138.552 40.3787 138.264 38.864 138.072 37.2C137.901 35.536 137.72 33.9147 137.528 32.336C137.357 30.736 137.123 29.2853 136.824 27.984C136.547 26.6613 136.12 25.6693 135.544 25.008C135.843 24.88 136.195 24.7307 136.6 24.56C137.005 24.368 137.389 24.1867 137.752 24.016C138.179 23.8027 138.616 23.5893 139.064 23.376C139.533 23.568 139.96 23.856 140.344 24.24C140.664 24.56 140.952 24.9867 141.208 25.52C141.485 26.0533 141.624 26.736 141.624 27.568C141.624 28.4 141.635 29.4027 141.656 30.576C141.699 31.7493 141.752 32.9653 141.816 34.224C141.88 35.4827 141.965 36.7413 142.072 38C142.179 39.2587 142.296 40.3787 142.424 41.36C142.552 42.3413 142.701 43.1413 142.872 43.76C143.043 44.3787 143.224 44.688 143.416 44.688C143.672 44.688 143.896 44.4107 144.088 43.856C144.28 43.28 144.451 42.5227 144.6 41.584C144.749 40.6453 144.877 39.5787 144.984 38.384C145.091 37.1893 145.176 35.9733 145.24 34.736C145.389 31.8347 145.485 28.528 145.528 24.816H150.392C150.349 25.7547 150.285 26.7573 150.2 27.824C150.115 28.7413 150.008 29.7973 149.88 30.992C149.752 32.1653 149.581 33.392 149.368 34.672C149.112 36.2293 148.984 37.6267 148.984 38.864C148.984 40.1013 149.069 41.1573 149.24 42.032C149.411 42.8853 149.635 43.5467 149.912 44.016C150.211 44.464 150.52 44.688 150.84 44.688C151.096 44.688 151.32 44.4107 151.512 43.856C151.704 43.28 151.875 42.5227 152.024 41.584C152.173 40.6453 152.301 39.5787 152.408 38.384C152.515 37.1893 152.6 35.9733 152.664 34.736C152.813 31.8347 152.909 28.528 152.952 24.816H157.816ZM170.848 40.688C171.019 41.328 171.221 41.8293 171.456 42.192C171.712 42.5333 171.968 42.7893 172.224 42.96C172.501 43.152 172.8 43.2693 173.12 43.312L171.776 45.968C171.627 46.032 171.456 46.0853 171.264 46.128C170.901 46.2347 170.475 46.288 169.984 46.288C169.685 46.288 169.376 46.2453 169.056 46.16C168.757 46.096 168.459 45.9787 168.16 45.808C167.883 45.616 167.627 45.36 167.392 45.04C167.157 44.72 166.976 44.304 166.848 43.792C166.741 43.408 166.624 42.9493 166.496 42.416C166.368 41.8827 166.24 41.328 166.112 40.752C166.027 41.712 165.781 42.544 165.376 43.248C164.992 43.952 164.523 44.5493 163.968 45.04C163.435 45.5093 162.837 45.8613 162.176 46.096C161.536 46.3307 160.907 46.448 160.288 46.448C159.776 46.448 159.296 46.3733 158.848 46.224C158.4 46.0747 158.005 45.8507 157.664 45.552C157.323 45.2533 157.045 44.8907 156.832 44.464C156.64 44.016 156.544 43.4933 156.544 42.896C156.544 41.8293 156.736 40.848 157.12 39.952C157.504 39.056 157.973 38.192 158.528 37.36C159.083 36.528 159.669 35.7067 160.288 34.896C160.907 34.064 161.44 33.2 161.888 32.304C162.336 31.408 162.656 30.448 162.848 29.424C163.04 28.3787 162.997 27.2267 162.72 25.968C162.656 25.584 162.592 25.3067 162.528 25.136L162.464 24.848L166.944 23.824L170.848 40.688ZM160.96 40.592C160.96 41.296 161.131 41.8187 161.472 42.16C161.813 42.5013 162.208 42.672 162.656 42.672C163.04 42.672 163.424 42.5547 163.808 42.32C164.213 42.064 164.555 41.7013 164.832 41.232C165.109 40.7413 165.301 40.144 165.408 39.44C165.515 38.7147 165.461 37.872 165.248 36.912C164.949 35.696 164.661 34.48 164.384 33.264C164.107 32.048 163.851 30.896 163.616 29.808C163.659 31.088 163.541 32.2507 163.264 33.296C162.987 34.3413 162.677 35.3013 162.336 36.176C161.995 37.0293 161.675 37.8187 161.376 38.544C161.099 39.2693 160.96 39.952 160.96 40.592Z" fill="white" fill-opacity="0.97"/>
<path d="M48.1868 33.5066C48.304 33.67 48.5735 34.0319 48.7142 34.172C48.8548 34.3121 49.2181 34.5573 49.3822 34.6624L49.9448 34.9075C50.1206 34.9542 50.5144 35.0476 50.6831 35.0476C50.8519 35.0476 52.3474 34.7207 53.074 34.5573L55.2891 33.5066L57.6449 32.2457L60.8444 30.4945L65.4504 28.1829L72.2012 24.9958C71.8848 24.5638 71.1675 23.6438 70.8299 23.4197C70.408 23.1395 69.8103 22.8593 69.4939 22.7542C69.1774 22.6492 67.771 22.5791 67.2436 22.8593C66.8217 23.0835 65.3098 23.6999 64.6066 23.9801L57.4691 27.0271L48.4538 30.8798L48.1868 33.5066Z" fill="#FFCC29"/>
<path d="M62.8837 29.9691L67.7007 27.9377L74.9437 31.0199L75.1898 33.4715L73.8186 34.4172C73.4904 34.604 72.7637 34.9776 72.4825 34.9776C72.1309 34.9776 71.7089 35.0826 71.4277 34.9776C71.2026 34.8935 69.8337 34.3121 69.1774 34.0319L65.8723 31.8604L63.3408 30.3194L62.8837 29.9691Z" fill="#FFCC29"/>
<path d="M58.2074 32.9112L62.286 30.7047L65.4856 32.596L61.6883 36.4486L58.2074 32.9112Z" fill="#FFCC29"/>
<path d="M50.5425 25.7664C49.9096 26.9338 48.6509 29.3808 48.679 29.8291H48.9603L53.953 27.6577L54.5156 27.3775L50.5425 25.7664Z" fill="#FFCC29"/>
<path d="M51.1754 25.0309L55.6407 26.8871L60.3874 24.8908L60.4577 24.8557L56.5549 23.1045C56.1447 22.9645 55.261 22.6913 55.0078 22.7193C54.6914 22.7543 53.6718 22.7893 53.1092 23.1045C52.6591 23.3567 51.7965 24.2136 51.4215 24.6106L51.1754 25.0309Z" fill="#FFCC29"/>
<path d="M56.4494 22.0538C57.4222 21.6802 59.7334 20.947 61.196 21.003C63.0244 21.0731 64.5714 21.2832 65.134 21.4583C65.584 21.5984 66.5404 21.9137 66.9623 22.0538V22.1939L61.618 24.2953L56.4494 22.0538Z" fill="#FFCC29"/>
<path d="M68.9313 27.4125L72.7637 25.7664C73.4552 26.9221 74.803 29.3388 74.6624 29.7591V29.8291L68.9313 27.4125Z" fill="#FFCC29"/>
<path d="M48.2219 42.4726C48.5266 42.8579 49.1572 43.6495 49.2415 43.7335C49.347 43.8386 50.9996 45.2045 51.9489 45.5548C52.7083 45.8349 53.6483 46.0684 54.0233 46.1502L55.6055 46.3603H57.7152C58.2191 46.3253 59.2833 46.2342 59.5083 46.1502C59.7333 46.0661 60.4928 45.8116 60.8444 45.6949L61.6883 45.2045L62.4266 45.6598C62.8251 45.8116 63.6502 46.1221 63.7627 46.1502C63.9033 46.1852 64.712 46.3603 65.0988 46.3603C65.4082 46.3603 66.2591 46.407 66.6458 46.4304L68.9664 46.2202L70.6893 45.8349L72.166 45.1695L73.6076 44.2238L74.5921 43.2432L75.1195 42.4376L74.0295 42.6478C73.3966 42.7645 71.9621 42.984 71.287 42.928C70.6119 42.8719 70.1619 42.8112 70.0212 42.7879L68.8258 42.6478L66.2239 41.9473L64.7472 41.492C64.255 41.3869 63.172 41.1908 62.7782 41.2468C62.3844 41.3029 61.8875 41.7371 61.6883 41.9473L61.2663 41.5971C61.1609 41.4803 60.8514 41.2468 60.4576 41.2468C59.9654 41.2468 58.559 41.457 57.9613 41.7021C57.4831 41.8983 56.59 42.1341 56.2033 42.2275L54.832 42.6478L53.4959 42.8579H50.6831L49.5228 42.6478L48.5383 42.4726H48.2219Z" fill="#FFCC29"/>
</svg>
